<svg xmlns="http://www.w3.org/2000/svg" xmlns:svg="http://www.w3.org/2000/svg" id="svg235" width="86.323" height="37.246" version="1.1" viewBox="0 0 22.84 9.855"><metadata id="metadata232"/><g id="layer2" transform="translate(-92.744939,-220.66172)"><path id="path1073" fill="none" stroke="#0d0000" stroke-dasharray="none" stroke-linecap="round" stroke-linejoin="miter" stroke-miterlimit="4" stroke-opacity="1" stroke-width=".705" d="m 93.685676,224.22705 c -0.495396,-0.59521 -0.945388,-1.3303 -0.181722,-2.27399 0.838286,-0.98622 2.401055,-0.96038 3.612119,-0.92697 1.211067,0.0334 1.540753,0.16886 1.666036,0.91222 0.12528,0.74334 -0.795469,6.93082 -2.447188,7.88444 -1.394812,0.9104 -2.27179,-0.15037 -2.372017,-0.96049 -0.21799,-1.76212 1.876684,-2.98069 4.244194,-3.61506 6.904652,-1.32109 10.528252,-1.77975 17.020092,-1.03651"/><path id="path4173" fill="#000" fill-opacity="1" stroke="none" stroke-width=".1" d="m 101.3851,223.49682 q 0.051,-0.009 0.0869,0.0328 0.0399,0.0413 0.0548,0.12364 0.0284,0.15676 -0.0305,0.25646 -0.14265,0.24035 -0.31054,0.40837 -0.16397,0.16732 -0.40694,0.21132 -0.19987,0.0362 -0.32234,-0.059 -0.12319,-0.0991 -0.16293,-0.31857 -0.0199,-0.10972 -0.0161,-0.40182 0.006,-0.25612 -0.0108,-0.35017 -0.0114,-0.0627 -0.0545,-0.0549 -0.0509,0.009 -0.12087,0.1595 -0.0706,0.14636 -0.125645,0.37893 -0.05502,0.23258 -0.0705,0.48228 -0.01768,0.32699 -0.311592,0.38023 -0.117567,0.0213 -0.171661,-0.0539 -0.05089,-0.0798 -0.09063,-0.29929 -0.02271,-0.1254 -0.03228,-0.20057 l -0.05286,-0.31422 q -0.109307,-0.60351 -0.106357,-1.27997 0.0069,-0.67716 0.165715,-1.1633 0.162054,-0.49076 0.499079,-0.5518 0.180268,-0.0326 0.318391,0.10423 0.14133,0.13226 0.18604,0.37915 0.0717,0.3958 -0.0822,0.86484 -0.15455,0.46512 -0.572845,1.12776 0.02515,0.20591 0.06419,0.42145 0.06899,-0.35653 0.188128,-0.59262 0.122347,-0.24072 0.258857,-0.35854 0.14043,-0.11853 0.26975,-0.14195 0.25473,-0.0461 0.30087,0.20859 0.0277,0.15284 0.0139,0.56818 -0.0127,0.35443 0.007,0.46416 0.0284,0.15675 0.14204,0.13617 0.0784,-0.0142 0.16715,-0.12741 0.092,-0.11785 0.23321,-0.36604 0.0371,-0.0634 0.0959,-0.074 z m -1.602557,-2.21107 q -0.07054,0.0128 -0.119846,0.23218 -0.05002,0.21548 -0.06985,0.57524 -0.01663,0.35514 0.0055,0.76802 0.191156,-0.33009 0.28687,-0.69551 0.09963,-0.36612 0.04995,-0.64044 -0.02271,-0.12541 -0.06221,-0.18706 -0.0395,-0.0616 -0.09045,-0.0524 z" enable-background="new" font-family="Pacifico" font-size="3.983" font-stretch="normal" font-style="normal" font-variant="normal" font-weight="normal" letter-spacing="0" text-anchor="start" word-spacing="0" writing-mode="lr-tb" style="line-height:1.25;-inkscape-font-specification:'Pacifico, Normal';font-variant-ligatures:normal;font-variant-caps:normal;font-variant-numeric:normal;font-feature-settings:normal;text-align:start"/><path id="path4175" fill="#000" fill-opacity="1" stroke="none" stroke-width=".1" d="m 102.95868,223.26526 q 0.0512,-0.008 0.086,0.035 0.0388,0.0423 0.0516,0.125 0.0244,0.15742 -0.0369,0.2556 -0.11817,0.19968 -0.36261,0.39072 -0.2405,0.19043 -0.54355,0.2374 -0.41324,0.0641 -0.67628,-0.12488 -0.26304,-0.18895 -0.32344,-0.57858 -0.0421,-0.27156 0.036,-0.52145 0.0775,-0.25383 0.25689,-0.42269 0.1833,-0.16948 0.43912,-0.20913 0.22826,-0.0354 0.38736,0.081 0.15849,0.11246 0.19449,0.34466 0.0421,0.27156 -0.12418,0.49884 -0.16295,0.22275 -0.60967,0.40887 0.12646,0.16579 0.40195,0.12308 0.17711,-0.0274 0.38253,-0.18423 0.20874,-0.16133 0.34292,-0.38767 0.0387,-0.0624 0.0977,-0.0716 z m -1.08025,-0.41692 q -0.14562,0.0226 -0.22171,0.20767 -0.0722,0.18448 -0.0349,0.42455 l 0.001,0.008 q 0.22366,-0.0911 0.34039,-0.22203 0.11673,-0.13094 0.0942,-0.27656 -0.0116,-0.0748 -0.0616,-0.11136 -0.0467,-0.0411 -0.11752,-0.0301 z" enable-background="new" font-family="Pacifico" font-size="3.983" font-stretch="normal" font-style="normal" font-variant="normal" font-weight="normal" letter-spacing="0" text-anchor="start" word-spacing="0" writing-mode="lr-tb" style="line-height:1.25;-inkscape-font-specification:'Pacifico, Normal';font-variant-ligatures:normal;font-variant-caps:normal;font-variant-numeric:normal;font-feature-settings:normal;text-align:start"/><path id="path4177" fill="#000" fill-opacity="1" stroke="none" stroke-width=".1" d="m 103.1689,224.162 q -0.15011,0.0193 -0.2336,-0.13062 -0.0795,-0.1504 -0.12417,-0.49802 -0.0659,-0.51353 0.0209,-0.99447 0.0208,-0.11912 0.0932,-0.18062 0.0759,-0.066 0.22201,-0.0847 0.079,-0.0101 0.11315,0.006 0.0341,0.0157 0.0412,0.071 0.008,0.0632 -0.0227,0.29203 -0.0192,0.16308 -0.0277,0.28463 -0.009,0.12154 -0.002,0.29738 0.0867,-0.35645 0.22131,-0.59056 0.13457,-0.2341 0.27696,-0.34474 0.14635,-0.11114 0.27671,-0.12788 0.25676,-0.033 0.28973,0.2238 0.007,0.0513 -0.004,0.25343 -0.0113,0.16207 -0.006,0.20157 0.0177,0.13826 0.1165,0.12558 0.11061,-0.0142 0.2621,-0.21033 0.0448,-0.058 0.10007,-0.0651 0.0513,-0.007 0.0851,0.0373 0.0372,0.0394 0.0468,0.11445 0.0188,0.14616 -0.0496,0.23925 -0.0959,0.12876 -0.23536,0.23099 -0.13601,0.0978 -0.30192,0.11907 -0.20937,0.0269 -0.33367,-0.0656 -0.12034,-0.093 -0.14367,-0.27467 -0.008,-0.0592 -0.003,-0.12003 -0.002,-0.08 -0.006,-0.10767 -0.008,-0.0632 -0.0516,-0.0576 -0.0592,0.008 -0.14077,0.15459 -0.0781,0.14253 -0.14498,0.37197 -0.0669,0.22943 -0.0952,0.478 -0.0196,0.19124 -0.0703,0.266 -0.0472,0.0703 -0.16964,0.086 z" enable-background="new" font-family="Pacifico" font-size="3.983" font-stretch="normal" font-style="normal" font-variant="normal" font-weight="normal" letter-spacing="0" text-anchor="start" word-spacing="0" writing-mode="lr-tb" style="line-height:1.25;-inkscape-font-specification:'Pacifico, Normal';font-variant-ligatures:normal;font-variant-caps:normal;font-variant-numeric:normal;font-feature-settings:normal;text-align:start"/><path id="path4179" fill="#000" fill-opacity="1" stroke="none" stroke-width=".1" d="m 104.96724,223.94503 q -0.15063,0.0147 -0.2295,-0.1377 -0.0749,-0.15276 -0.1089,-0.50158 -0.0502,-0.51531 0.0513,-0.99337 0.0245,-0.11843 0.0987,-0.17769 0.0778,-0.0636 0.2245,-0.0779 0.0793,-0.008 0.11292,0.009 0.0336,0.0167 0.0391,0.0722 0.006,0.0634 -0.0316,0.2912 -0.0242,0.16241 -0.0364,0.28365 -0.0122,0.12123 -0.0111,0.29719 0.0976,-0.35364 0.23925,-0.58353 0.14166,-0.22988 0.28737,-0.33612 0.14967,-0.10661 0.28048,-0.11936 0.25765,-0.0251 0.28276,0.23254 0.005,0.0515 -0.0113,0.2532 -0.0163,0.16165 -0.0124,0.20129 0.0135,0.13873 0.11261,0.12908 0.11099,-0.0108 0.26841,-0.20222 0.0465,-0.0566 0.102,-0.062 0.0515,-0.005 0.0839,0.0398 0.036,0.0405 0.0433,0.11582 0.0143,0.14667 -0.0569,0.23763 -0.0998,0.12577 -0.2423,0.22369 -0.13894,0.0936 -0.30542,0.10979 -0.21009,0.0205 -0.33151,-0.0757 -0.11745,-0.0966 -0.13522,-0.27893 -0.006,-0.0595 3.1e-4,-0.12008 2e-4,-0.08 -0.002,-0.1078 -0.006,-0.0634 -0.0498,-0.0592 -0.0595,0.006 -0.14543,0.15023 -0.0824,0.14007 -0.15627,0.36736 -0.0739,0.22728 -0.10979,0.47487 -0.0255,0.19055 -0.0783,0.26373 -0.0493,0.0688 -0.17219,0.0808 z" enable-background="new" font-family="Pacifico" font-size="3.983" font-stretch="normal" font-style="normal" font-variant="normal" font-weight="normal" letter-spacing="0" text-anchor="start" word-spacing="0" writing-mode="lr-tb" style="line-height:1.25;-inkscape-font-specification:'Pacifico, Normal';font-variant-ligatures:normal;font-variant-caps:normal;font-variant-numeric:normal;font-feature-settings:normal;text-align:start"/><path id="path4181" fill="#000" fill-opacity="1" stroke="none" stroke-width=".1" d="m 106.77049,223.77573 q -0.15114,0.008 -0.22295,-0.14807 -0.0678,-0.15604 -0.0858,-0.50605 -0.0266,-0.51706 0.0967,-0.98997 0.0299,-0.11719 0.10677,-0.17298 0.0807,-0.06 0.22783,-0.0675 0.0795,-0.004 0.11239,0.0142 0.0328,0.0182 0.0357,0.0739 0.003,0.0636 -0.045,0.28944 -0.0316,0.16114 -0.0493,0.28169 -0.0179,0.11657 -0.0249,0.29239 0.0915,-0.31575 0.2276,-0.53809 0.14011,-0.22254 0.28992,-0.33392 0.15358,-0.11555 0.29279,-0.1227 0.13921,-0.007 0.19816,0.0536 0.0629,0.0606 0.0697,0.19183 0.007,0.12727 -0.0519,0.46526 -0.0245,0.14482 -0.0327,0.21702 0.17375,-0.49943 0.40494,-0.73462 0.23118,-0.23519 0.44199,-0.24602 0.25853,-0.0133 0.2718,0.24526 0.008,0.15512 -0.0587,0.56531 -0.0578,0.34991 -0.0521,0.46128 0.008,0.1591 0.12352,0.15317 0.0795,-0.004 0.18203,-0.10505 0.10626,-0.10516 0.27799,-0.33331 0.0449,-0.0581 0.10453,-0.0612 0.0517,-0.003 0.082,0.0437 0.0343,0.0461 0.0386,0.12962 0.008,0.1591 -0.0629,0.25048 -0.1602,0.21959 -0.35213,0.36503 -0.18795,0.14524 -0.43852,0.1581 -0.20285,0.0104 -0.31219,-0.0996 -0.10954,-0.11401 -0.12097,-0.33674 -0.006,-0.11137 0.0353,-0.4006 0.0388,-0.25323 0.0339,-0.34869 -0.003,-0.0636 -0.047,-0.0614 -0.0517,0.003 -0.14022,0.14279 -0.0887,0.13615 -0.17295,0.35981 -0.0842,0.22366 -0.13143,0.46934 -0.034,0.19317 -0.0903,0.25987 -0.0524,0.0665 -0.17969,0.073 -0.13125,0.007 -0.2052,-0.11309 -0.0702,-0.12401 -0.0794,-0.303 -0.008,-0.15114 0.0173,-0.43955 0.0187,-0.25619 0.0147,-0.33574 -0.003,-0.0636 -0.047,-0.0614 -0.0597,0.003 -0.14379,0.15095 -0.0841,0.14788 -0.1602,0.37511 -0.0721,0.22702 -0.11276,0.44446 -0.0342,0.18918 -0.0903,0.25986 -0.0524,0.0665 -0.17572,0.0728 z" enable-background="new" font-family="Pacifico" font-size="3.983" font-stretch="normal" font-style="normal" font-variant="normal" font-weight="normal" letter-spacing="0" text-anchor="start" word-spacing="0" writing-mode="lr-tb" style="line-height:1.25;-inkscape-font-specification:'Pacifico, Normal';font-variant-ligatures:normal;font-variant-caps:normal;font-variant-numeric:normal;font-feature-settings:normal;text-align:start"/><path id="path4183" fill="#000" fill-opacity="1" stroke="none" stroke-width=".1" d="m 109.93834,223.66191 q -0.24692,-7.7e-4 -0.39372,-0.18045 -0.14679,-0.17968 -0.14588,-0.47041 10e-4,-0.31861 0.14924,-0.60092 0.14826,-0.28629 0.39174,-0.45678 0.24747,-0.17446 0.52227,-0.17359 0.0876,2.7e-4 0.11538,0.0362 0.0318,0.032 0.0514,0.11964 0.0837,-0.0157 0.17529,-0.0154 0.19515,6.1e-4 0.19471,0.14 -2.6e-4,0.0836 -0.061,0.39808 -0.093,0.45771 -0.0936,0.63693 -1.9e-4,0.0597 0.0276,0.0957 0.0318,0.0359 0.0795,0.0361 0.0757,2.4e-4 0.1835,-0.095 0.10785,-0.0992 0.29173,-0.3177 0.048,-0.0556 0.10771,-0.0554 0.0518,1.7e-4 0.0795,0.048 0.0317,0.0479 0.0314,0.13153 -5e-4,0.1593 -0.0764,0.24668 -0.16393,0.20261 -0.34756,0.34142 -0.18364,0.13882 -0.3549,0.13828 -0.13142,-4.1e-4 -0.24266,-0.0884 -0.10724,-0.0919 -0.16251,-0.24743 -0.20815,0.33389 -0.52278,0.3329 z m 0.14463,-0.40179 q 0.0876,2.7e-4 0.1676,-0.10303 0.08,-0.10329 0.11636,-0.27443 l 0.14966,-0.73234 q -0.16729,0.004 -0.31105,0.12646 -0.13977,0.11905 -0.22403,0.31791 -0.0843,0.19887 -0.085,0.4219 -3.8e-4,0.12346 0.0472,0.18335 0.0516,0.0599 0.13921,0.0602 z" enable-background="new" font-family="Pacifico" font-size="3.983" font-stretch="normal" font-style="normal" font-variant="normal" font-weight="normal" letter-spacing="0" text-anchor="start" word-spacing="0" writing-mode="lr-tb" style="line-height:1.25;-inkscape-font-specification:'Pacifico, Normal';font-variant-ligatures:normal;font-variant-caps:normal;font-variant-numeric:normal;font-feature-settings:normal;text-align:start"/><path id="path4185" fill="#000" fill-opacity="1" stroke="none" stroke-width=".1" d="m 111.60174,223.68835 q -0.1511,-0.009 -0.20566,-0.17128 -0.0506,-0.16245 -0.0306,-0.51236 0.0294,-0.5169 0.20308,-0.97373 0.0424,-0.11327 0.12482,-0.16043 0.0867,-0.0509 0.2338,-0.0425 0.0795,0.004 0.1102,0.0262 0.0307,0.0217 0.0275,0.0774 -0.004,0.0636 -0.076,0.28288 -0.0488,0.15679 -0.0795,0.27471 -0.0306,0.11793 -0.0565,0.29198 0.15069,-0.33448 0.32595,-0.53991 0.17526,-0.20542 0.33554,-0.28804 0.16426,-0.0824 0.29547,-0.0749 0.25846,0.0147 0.24373,0.27318 -0.009,0.15507 -0.11942,0.55566 -0.0953,0.34162 -0.1016,0.45296 -0.009,0.15904 0.10625,0.16561 0.0795,0.005 0.19232,-0.0848 0.11699,-0.0931 0.31236,-0.30133 0.0509,-0.0529 0.11053,-0.0495 0.0517,0.003 0.0768,0.0522 0.0291,0.0495 0.0243,0.13303 -0.009,0.15905 -0.0896,0.24222 -0.18299,0.201 -0.3895,0.32486 -0.20253,0.12409 -0.45303,0.10982 -0.20279,-0.0115 -0.2996,-0.13276 -0.0966,-0.12517 -0.0839,-0.34784 0.006,-0.11133 0.0783,-0.39445 0.066,-0.24755 0.0714,-0.34298 0.004,-0.0636 -0.0401,-0.0661 -0.0517,-0.003 -0.15482,0.12681 -0.0989,0.126 -0.2108,0.33903 -0.10789,0.21325 -0.18135,0.4524 -0.0544,0.18439 -0.11788,0.24859 -0.0593,0.0605 -0.18255,0.0534 z" enable-background="new" font-family="Pacifico" font-size="3.983" font-stretch="normal" font-style="normal" font-variant="normal" font-weight="normal" letter-spacing="0" text-anchor="start" word-spacing="0" writing-mode="lr-tb" style="line-height:1.25;-inkscape-font-specification:'Pacifico, Normal';font-variant-ligatures:normal;font-variant-caps:normal;font-variant-numeric:normal;font-feature-settings:normal;text-align:start"/><path id="path4187" fill="#000" fill-opacity="1" stroke="none" stroke-width=".1" d="m 113.57324,223.82919 q -0.15004,-0.0198 -0.19243,-0.18601 -0.0384,-0.16574 0.007,-0.51321 0.0676,-0.51332 0.27446,-0.95608 0.0506,-0.10983 0.13633,-0.15077 0.0902,-0.0444 0.2363,-0.0251 0.079,0.0104 0.10796,0.0343 0.029,0.0239 0.0217,0.0792 -0.008,0.0632 -0.0966,0.2765 -0.0603,0.15275 -0.0996,0.26809 -0.0393,0.11534 -0.0779,0.287 0.17499,-0.32243 0.36495,-0.51435 0.18996,-0.19191 0.3559,-0.26246 0.1699,-0.07 0.3002,-0.0529 0.12636,0.0166 0.1807,0.0921 0.0588,0.072 0.0422,0.19836 -0.0135,0.10267 -0.0944,0.38125 -0.0712,0.23567 -0.12346,0.44972 -0.0517,0.21011 -0.0866,0.47466 -0.0198,0.15005 -0.0918,0.20886 -0.0675,0.0554 -0.20574,0.0372 -0.13031,-0.0171 -0.1807,-0.0921 -0.0504,-0.0749 -0.0327,-0.20917 0.0208,-0.15795 0.12388,-0.51394 0.089,-0.30965 0.10039,-0.39652 0.008,-0.0632 -0.0351,-0.0689 -0.0513,-0.007 -0.16377,0.11502 -0.10797,0.11835 -0.23526,0.32253 -0.12335,0.2047 -0.21428,0.43777 -0.0679,0.17987 -0.13593,0.2392 -0.0636,0.0559 -0.186,0.0398 z" enable-background="new" font-family="Pacifico" font-size="3.983" font-stretch="normal" font-style="normal" font-variant="normal" font-weight="normal" letter-spacing="0" text-anchor="start" word-spacing="0" writing-mode="lr-tb" style="line-height:1.25;-inkscape-font-specification:'Pacifico, Normal';font-variant-ligatures:normal;font-variant-caps:normal;font-variant-numeric:normal;font-feature-settings:normal;text-align:start"/></g></svg>