<?xml version="1.0" encoding="UTF-8" standalone="no"?>
<!-- Generator: Adobe Illustrator 16.0.0, SVG Export Plug-In . SVG Version: 6.00 Build 0)  -->

<svg
   xmlns:dc="http://purl.org/dc/elements/1.1/"
   xmlns:cc="http://creativecommons.org/ns#"
   xmlns:rdf="http://www.w3.org/1999/02/22-rdf-syntax-ns#"
   xmlns:svg="http://www.w3.org/2000/svg"
   xmlns="http://www.w3.org/2000/svg"
   xmlns:sodipodi="http://sodipodi.sourceforge.net/DTD/sodipodi-0.dtd"
   xmlns:inkscape="http://www.inkscape.org/namespaces/inkscape"
   version="1.1"
   id="Capa_1"
   x="0px"
   y="0px"
   width="495.16684"
   height="180.6051"
   viewBox="0 0 495.16683 180.6051"
   xml:space="preserve"
   sodipodi:docname="paper-plane.svg"
   inkscape:version="0.92.4 5da689c313, 2019-01-14"><metadata
   id="metadata5463"><rdf:RDF><cc:Work
       rdf:about=""><dc:format>image/svg+xml</dc:format><dc:type
         rdf:resource="http://purl.org/dc/dcmitype/StillImage" /><dc:title></dc:title></cc:Work></rdf:RDF></metadata><defs
   id="defs5461" /><sodipodi:namedview
   pagecolor="#ffffff"
   bordercolor="#666666"
   borderopacity="1"
   objecttolerance="10"
   gridtolerance="10"
   guidetolerance="10"
   inkscape:pageopacity="0"
   inkscape:pageshadow="2"
   inkscape:window-width="1920"
   inkscape:window-height="1029"
   id="namedview5459"
   showgrid="false"
   inkscape:zoom="0.94873415"
   inkscape:cx="68.807274"
   inkscape:cy="-28.64387"
   inkscape:window-x="0"
   inkscape:window-y="25"
   inkscape:window-maximized="1"
   inkscape:current-layer="Capa_1" />
<g
   id="g5426"
   transform="matrix(-0.95474967,0.22629848,0.22629848,0.95474967,421.21273,-202.65052)"
   style="fill:#030303;fill-opacity:1;stroke:none;stroke-opacity:1">
	<g
   id="g5424"
   style="fill:#030303;fill-opacity:1;stroke:none;stroke-opacity:1">
		<path
   d="m 51.656,328.534 c 5.725,-0.33 11.445,-0.731 17.163,-1.158 0.208,0.011 0.381,0.071 0.6,0.066 94.392,-3.626 188.71,-9.669 283.206,-9.826 5.824,-0.01 7.962,-5.713 6.424,-9.917 2.021,-12.929 3.052,-25.893 3.301,-38.974 42.446,-8.089 84.96,-15.803 127.63,-22.63 7.932,0.586 10.893,-11.867 2.432,-13.99 -40.44,-10.143 -81.344,-18.557 -120.657,-32.674 -2.041,-2.222 -5.291,-3.413 -8.734,-1.75 -10.247,4.956 -20.632,9.544 -31.062,13.969 0.7,-5.943 1.325,-11.893 2.117,-17.826 1.925,-4.103 -0.127,-10.42 -6.159,-10.816 -41.487,-2.729 -82.04,-12.083 -123.172,-17.613 -0.337,-0.046 -0.655,-0.03 -0.982,-0.036 -1.805,-0.978 -4.045,-0.972 -6.312,0.754 -65.114,49.743 -127.517,102.993 -194.181,150.69 -0.67,0.482 -1.186,1.031 -1.627,1.609 -0.889,0.965 -1.331,2.098 -1.424,3.286 -0.005,0.03 -0.005,0.061 -0.01,0.091 -0.01,0.173 -0.031,0.346 -0.025,0.519 -0.031,0.482 0.02,0.965 0.083,1.442 -1.076,4.133 1.107,9.181 6.619,9.049 14.891,-0.35 29.845,-1.996 44.77,-4.265 z m 293.681,-25.152 c -63.703,0.31 -127.333,3.153 -190.955,6.068 30.478,-5.779 60.905,-11.807 91.335,-17.85 34.088,-6.769 68.177,-13.553 102.296,-20.124 -0.273,10.691 -1.081,21.314 -2.676,31.906 z M 317.612,217.63 c -49.322,19.794 -100.331,34.729 -151.555,49.099 51.681,-19.486 103.207,-39.339 152.707,-64.018 -0.411,3.722 -0.817,7.447 -1.325,11.159 -0.178,1.295 -0.116,2.575 0.173,3.76 z M 203.284,179.52 c 33.185,4.57 66.026,11.357 99.262,15.338 -78.69,38.136 -162.18,64.884 -243.09,97.871 48.39,-37.15 95.369,-76.129 143.828,-113.209 z m 162.493,32.568 c 0.563,0.409 1.183,0.779 1.925,1.043 28.329,10.187 57.472,17.399 86.686,24.43 -68.791,11.679 -137.237,25.298 -205.673,38.908 -38.473,7.647 -76.961,15.238 -115.519,22.465 -22.188,4.153 -44.871,9.135 -67.631,13.075 -2.044,0.147 -4.085,0.305 -6.134,0.438 102.632,-32.226 208.66,-54.035 306.346,-100.359 z"
   id="path5422"
   inkscape:connector-curvature="0"
   style="fill:#030303;fill-opacity:1;stroke:none;stroke-opacity:1" />
	</g>
</g>
<g
   id="g5428"
   transform="translate(-1.0908033,-92.625905)">
</g>
<g
   id="g5430"
   transform="translate(-1.0908033,-92.625905)">
</g>
<g
   id="g5432"
   transform="translate(-1.0908033,-92.625905)">
</g>
<g
   id="g5434"
   transform="translate(-1.0908033,-92.625905)">
</g>
<g
   id="g5436"
   transform="translate(-1.0908033,-92.625905)">
</g>
<g
   id="g5438"
   transform="translate(-1.0908033,-92.625905)">
</g>
<g
   id="g5440"
   transform="translate(-1.0908033,-92.625905)">
</g>
<g
   id="g5442"
   transform="translate(-1.0908033,-92.625905)">
</g>
<g
   id="g5444"
   transform="translate(-1.0908033,-92.625905)">
</g>
<g
   id="g5446"
   transform="translate(-1.0908033,-92.625905)">
</g>
<g
   id="g5448"
   transform="translate(-1.0908033,-92.625905)">
</g>
<g
   id="g5450"
   transform="translate(-1.0908033,-92.625905)">
</g>
<g
   id="g5452"
   transform="translate(-1.0908033,-92.625905)">
</g>
<g
   id="g5454"
   transform="translate(-1.0908033,-92.625905)">
</g>
<g
   id="g5456"
   transform="translate(-1.0908033,-92.625905)">
</g>
</svg>